<svg xmlns="http://www.w3.org/2000/svg" width="500" viewBox="0 0 1024.55 134.55">
	<style type="text/css">
		.st2{fill:#005a90;fill-rule:evenodd;}
		.st1{fill:#029fb0;}
		.st3{fill:#029fb0;fill-rule:evenodd;}
		.st0{fill:#005a90;}
	</style>
	<path class="st0" d="M235.95,48.04L235.95,103.11L229.1,103.11L229.1,48.04L210.04,48.04L210.04,41.63L254.92,41.63L254.92,48.04Z"/>
	<path class="st0" d="M271.88,68.86L302.01,68.86L302.01,75.27L271.88,75.27L271.88,96.7L303.94,96.7L303.94,103.11L265.03,103.11L265.03,41.63L303.94,41.63L303.94,48.04L271.88,48.04Z"/>
	<path class="st0" d="M336.7,54.45L316.94,103.11L309.38,103.11L334.86,41.63L338.72,41.63L364.11,103.11L356.55,103.11Z"/>
	<path class="st0" d="M380.97,68.86L411.1,68.86L411.1,75.27L380.97,75.27L380.97,96.7L413.03,96.7L413.03,103.11L374.12,103.11L374.12,41.63L413.03,41.63L413.03,48.04L380.97,48.04Z"/>
	<path class="st1" d="M471.35,103.11L456.42,103.11L456.42,79.4L437.36,79.4L437.36,103.11L422.43,103.11L422.43,41.63L437.36,41.63L437.36,65.26L456.42,65.26L456.42,41.63L471.35,41.63Z"/>
	<path class="st1" d="M499.2,65.26L523.97,65.26L523.97,79.4L499.2,79.4L499.2,88.97L526.34,88.97L526.34,103.11L484.27,103.11L484.27,41.63L526.34,41.63L526.34,55.68L499.2,55.68Z"/>
	<path class="st1" d="M586.03,78.61C587.99,80.6 590.43,81.59 593.36,81.59C596.29,81.59 598.73,80.6 600.69,78.61C602.65,76.62 603.64,74.01 603.64,70.79C603.64,67.57 602.65,64.96 600.69,62.97C598.73,60.98 596.29,59.99 593.36,59.99C590.43,59.99 587.99,60.98 586.03,62.97C584.06,64.96 583.08,67.57 583.08,70.79C583.08,74.01 584.06,76.62 586.03,78.61M550.54,78.61C552.5,80.6 554.94,81.59 557.87,81.59C560.8,81.59 563.25,80.6 565.21,78.61C567.17,76.62 568.15,74.01 568.15,70.79C568.15,67.57 567.17,64.96 565.21,62.97C563.25,60.98 560.8,59.99 557.87,59.99C554.94,59.99 552.5,60.98 550.54,62.97C548.58,64.96 547.59,67.57 547.59,70.79C547.59,74.01 548.58,76.62 550.54,78.61M594.85,45.85C602.11,45.85 607.88,48.2 612.16,52.91C616.43,57.63 618.57,63.59 618.57,70.79C618.57,77.99 616.43,83.95 612.16,88.67C607.88,93.38 602.11,95.74 594.85,95.74C590.23,95.74 586.3,94.45 583.08,91.87L583.08,103.11L568.15,103.11L568.15,91.87C564.93,94.45 560.98,95.74 556.29,95.74C549.03,95.74 543.28,93.38 539.03,88.67C534.79,83.95 532.66,77.99 532.66,70.79C532.66,63.59 534.79,57.63 539.03,52.91C543.28,48.2 549.03,45.85 556.29,45.85C560.92,45.85 564.87,47.16 568.15,49.8L568.15,41.63L583.08,41.63L583.08,49.8C586.3,47.16 590.23,45.85 594.85,45.85"/>
	<path class="st1" d="M642.9,75.97L649.84,75.97C653.29,75.97 656.21,75.12 658.58,73.42C660.95,71.73 662.14,69.21 662.14,65.87C662.14,62.65 660.94,60.15 658.53,58.36C656.13,56.58 653.24,55.68 649.84,55.68L642.9,55.68ZM627.97,41.63L648.7,41.63C657.36,41.63 664.13,43.94 668.99,48.57C673.85,53.19 676.28,58.96 676.28,65.87C676.28,72.78 673.85,78.55 668.99,83.18C664.13,87.8 657.36,90.12 648.7,90.12L642.9,90.12L642.9,103.11L627.97,103.11Z"/>
	<path class="st1" d="M724.46,59.85C721.32,56.66 717.41,55.07 712.73,55.07C708.04,55.07 704.15,56.66 701.05,59.85C697.94,63.05 696.39,67.22 696.39,72.37C696.39,77.58 697.94,81.76 701.05,84.89C704.15,88.02 708.04,89.59 712.73,89.59C717.47,89.59 721.39,88.02 724.5,84.89C727.6,81.76 729.15,77.58 729.15,72.37C729.15,67.22 727.59,63.05 724.46,59.85M690.59,50.19C696.68,44.07 704.06,41.01 712.73,41.01C721.39,41.01 728.79,44.07 734.91,50.19C741.03,56.31 744.09,63.71 744.09,72.37C744.09,81.04 741.03,88.43 734.91,94.55C728.79,100.67 721.39,103.73 712.73,103.73C704.06,103.73 696.68,100.67 690.59,94.55C684.5,88.43 681.46,81.04 681.46,72.37C681.46,63.71 684.5,56.31 690.59,50.19"/>
	<path class="st0" d="M808.39,114.45L801.53,114.45L801.53,103.11L753.75,103.11L753.75,41.63L760.6,41.63L760.6,96.7L793.19,96.7L793.19,41.63L800.04,41.63L800.04,96.7L808.39,96.7Z"/>
	<path class="st0" d="M825.25,68.86L855.38,68.86L855.38,75.27L825.25,75.27L825.25,96.7L857.31,96.7L857.31,103.11L818.4,103.11L818.4,41.63L857.31,41.63L857.31,48.04L825.25,48.04Z"/>
	<path class="st0" d="M914.23,103.11L907.38,103.11L907.38,75.18L874.61,75.18L874.61,103.11L867.76,103.11L867.76,41.63L874.61,41.63L874.61,68.77L907.38,68.77L907.38,41.63L914.23,41.63Z"/>
	<path class="st0" d="M949.19,48.04L949.19,103.11L942.34,103.11L942.34,48.04L923.27,48.04L923.27,41.63L968.16,41.63L968.16,48.04Z"/>
	<path class="st0" d="M985.11,80.37L998.11,80.37C1003.85,80.37 1008.61,79.02 1012.38,76.32C1016.16,73.63 1018.05,69.59 1018.05,64.2C1018.05,58.87 1016.16,54.85 1012.38,52.13C1008.61,49.4 1003.85,48.04 998.11,48.04L985.11,48.04ZM978.26,41.63L997.67,41.63C1005.63,41.63 1012.1,43.65 1017.08,47.69C1022.06,51.73 1024.55,57.24 1024.55,64.2C1024.55,71.17 1022.06,76.68 1017.08,80.72C1012.1,84.76 1005.63,86.78 997.67,86.78L985.11,86.78L985.11,103.11L978.26,103.11Z"/>
	<path class="st2" d="M24.41,104.68C15.44,101.04 8.64,93.35 4.5,83.29C-9.19,49.38 9.63,-11.13 43.73,1.77C57.83,7.1 64.63,23.85 57.14,36.87C55.17,40.31 54.48,43.08 58.62,44.85C76.36,52.93 78.13,59.44 78.13,76L78.13,131C78.13,132.97 76.56,134.55 74.59,134.55C72.71,134.55 71.14,132.97 71.14,131C71.14,115.33 71.14,99.56 71.04,83.88C71.04,77.08 70.74,65.35 64.04,61.31C60,58.85 54.28,61.41 57.43,65.85C60.59,70.28 61.87,77.67 61.38,84.87C60.29,101.92 39.59,110.99 24.41,104.68"/>
	<path class="st3" d="M139.35,104.68C148.32,101.04 155.22,93.35 159.26,83.29C173.06,49.38 154.13,-11.13 120.03,1.77C106.03,7.1 99.23,23.85 106.72,36.87C108.69,40.31 109.28,43.08 105.24,44.85C87.4,52.93 85.72,59.44 85.72,76L85.72,131C85.72,132.97 87.3,134.55 89.17,134.55C91.15,134.55 92.72,132.97 92.72,131C92.72,115.33 92.72,99.56 92.82,83.88C92.82,77.08 93.12,65.35 99.72,61.31C103.86,58.85 109.58,61.41 106.43,65.85C103.17,70.28 101.99,77.67 102.48,84.87C103.57,101.92 124.17,110.99 139.35,104.68"/>
	<path class="st2" d="M81.88,46.13C88.39,46.13 93.71,40.91 93.71,34.4C93.71,27.89 88.39,22.57 81.88,22.57C75.37,22.57 70.15,27.89 70.15,34.4C70.15,40.91 75.37,46.13 81.88,46.13"/>
</svg>
