<svg xmlns="http://www.w3.org/2000/svg" width="24" height="24" viewBox="0 0 24 24">
	<style type="text/css">
		.st0{fill:#2ba5e0;}
	</style>
	<path class="st0" d="M17.89,8.22L15.92,17.5C15.77,18.15 15.38,18.31 14.83,18L11.83,15.79L10.39,17.19C10.25,17.37 10.03,17.48 9.79,17.48L9.78,17.48L10,14.43L15.56,9.41C15.8,9.19 15.5,9.07 15.18,9.29L8.31,13.61L5.35,12.69C4.72,12.49 4.7,12.05 5.49,11.73L17.06,7.28C17.59,7.08 18.06,7.4 17.89,8.22ZM11.99,0C5.37,0 0,5.37 0,12C0,18.62 5.37,24 11.99,24C18.62,24 23.99,18.62 23.99,12C23.99,5.37 18.62,0 11.99,0"/>
</svg>